<svg width="46" height="46" viewBox="0 0 46 46" fill="none" xmlns="http://www.w3.org/2000/svg">
<circle cx="23" cy="23" r="22.5" fill="#F3970A"/>
<g clip-path="url(#clip0_9_19)">
<path d="M26.5 13.5V23.5C26.5 24.6 25.6 25.5 24.5 25.5H13.5V19.12C14.23 19.99 15.35 20.53 16.59 20.5C17.6 20.48 18.51 20.09 19.19 19.44C19.5 19.18 19.76 18.85 19.96 18.49C20.32 17.88 20.52 17.16 20.5 16.41C20.47 15.24 19.95 14.21 19.14 13.5H26.5Z" stroke="white" stroke-width="1.5" stroke-linecap="round" stroke-linejoin="round"/>
<path d="M33.5 25.5V28.5C33.5 30.16 32.16 31.5 30.5 31.5H29.5C29.5 30.4 28.6 29.5 27.5 29.5C26.4 29.5 25.5 30.4 25.5 31.5H21.5C21.5 30.4 20.6 29.5 19.5 29.5C18.4 29.5 17.5 30.4 17.5 31.5H16.5C14.84 31.5 13.5 30.16 13.5 28.5V25.5H24.5C25.6 25.5 26.5 24.6 26.5 23.5V16.5H28.34C29.06 16.5 29.72 16.89 30.08 17.51L31.79 20.5H30.5C29.95 20.5 29.5 20.95 29.5 21.5V24.5C29.5 25.05 29.95 25.5 30.5 25.5H33.5Z" stroke="white" stroke-width="1.5" stroke-linecap="round" stroke-linejoin="round"/>
<path d="M19.5 33.5C20.0304 33.5 20.5391 33.2893 20.9142 32.9142C21.2893 32.5391 21.5 32.0304 21.5 31.5C21.5 30.9696 21.2893 30.4609 20.9142 30.0858C20.5391 29.7107 20.0304 29.5 19.5 29.5C18.9696 29.5 18.4609 29.7107 18.0858 30.0858C17.7107 30.4609 17.5 30.9696 17.5 31.5C17.5 32.0304 17.7107 32.5391 18.0858 32.9142C18.4609 33.2893 18.9696 33.5 19.5 33.5ZM27.5 33.5C28.0304 33.5 28.5391 33.2893 28.9142 32.9142C29.2893 32.5391 29.5 32.0304 29.5 31.5C29.5 30.9696 29.2893 30.4609 28.9142 30.0858C28.5391 29.7107 28.0304 29.5 27.5 29.5C26.9696 29.5 26.4609 29.7107 26.0858 30.0858C25.7107 30.4609 25.5 30.9696 25.5 31.5C25.5 32.0304 25.7107 32.5391 26.0858 32.9142C26.4609 33.2893 26.9696 33.5 27.5 33.5ZM33.5 23.5V25.5H30.5C29.95 25.5 29.5 25.05 29.5 24.5V21.5C29.5 20.95 29.95 20.5 30.5 20.5H31.79L33.5 23.5Z" stroke="white" stroke-width="1.5" stroke-linecap="round" stroke-linejoin="round"/>
<path d="M20.5 16.5C20.5 17.7 19.97 18.77 19.14 19.5C18.4108 20.1431 17.4723 20.4986 16.5 20.5C14.29 20.5 12.5 18.71 12.5 16.5C12.5 15.24 13.08 14.11 14 13.38C14.588 12.9087 15.2972 12.6132 16.0458 12.5274C16.7945 12.4416 17.5521 12.5691 18.2315 12.8952C18.9108 13.2213 19.4842 13.7327 19.8856 14.3705C20.2869 15.0082 20.4999 15.7464 20.5 16.5Z" stroke="white" stroke-width="1.5" stroke-miterlimit="10" stroke-linecap="round" stroke-linejoin="round"/>
<path d="M16.75 15.25V16.75L15.5 17.5" stroke="white" stroke-width="1.5" stroke-miterlimit="10" stroke-linecap="round" stroke-linejoin="round"/>
</g>
<defs>
<clipPath id="clip0_9_19">
<rect width="24" height="24" fill="white" transform="translate(11.5 11.5)"/>
</clipPath>
</defs>
</svg>
