<svg width="80" height="80" viewBox="0 0 80 80" fill="none" xmlns="http://www.w3.org/2000/svg">
<circle cx="40" cy="40" r="40" fill="#F3970A"/>
<path d="M24.636 32.2275L40.335 41.3127L55.9273 32.2809M40.335 57.4206V41.2949" stroke="white" stroke-width="1.5" stroke-linecap="round" stroke-linejoin="round"/>
<path d="M36.6548 23.4091L27.1607 28.6895C25.0094 29.8807 23.2493 32.8676 23.2493 35.3211V45.3663C23.2493 47.8199 25.0094 50.8068 27.1607 51.998L36.6548 57.2784C38.6816 58.3985 42.0063 58.3985 44.0331 57.2784L53.5272 51.998C55.6785 50.8068 57.4386 47.8199 57.4386 45.3663V35.3211C57.4386 32.8676 55.6785 29.8807 53.5272 28.6895L44.0331 23.4091C41.9885 22.2712 38.6816 22.2712 36.6548 23.4091Z" stroke="white" stroke-width="1.5" stroke-linecap="round" stroke-linejoin="round"/>
<path d="M49.2246 42.5397V36.0325L32.3522 26.2896" stroke="white" stroke-width="1.5" stroke-linecap="round" stroke-linejoin="round"/>
</svg>
