<svg width="46" height="46" viewBox="0 0 46 46" fill="none" xmlns="http://www.w3.org/2000/svg">
<circle cx="23" cy="23" r="22.5" fill="#F3970A"/>
<path d="M23 18.9688V24M21.6979 13.0521C22.4271 12.4375 23.6042 12.4375 24.3125 13.0521L25.9583 14.4583C26.2708 14.7188 26.8646 14.9375 27.2812 14.9375H29.0521C30.1562 14.9375 31.0625 15.8438 31.0625 16.9479V18.7188C31.0625 19.1354 31.2813 19.7188 31.5417 20.0313L32.9479 21.6771C33.5625 22.4063 33.5625 23.5833 32.9479 24.2917L31.5417 25.9375C31.2813 26.25 31.0625 26.8333 31.0625 27.25V29.0208C31.0625 30.125 30.1562 31.0313 29.0521 31.0313H27.2812C26.8646 31.0313 26.2812 31.25 25.9687 31.5104L24.3229 32.9167C23.5937 33.5313 22.4167 33.5313 21.7083 32.9167L20.0625 31.5104C19.75 31.25 19.1562 31.0313 18.75 31.0313H16.9271C15.8229 31.0313 14.9167 30.125 14.9167 29.0208V27.2396C14.9167 26.8333 14.7083 26.2396 14.4479 25.9375L13.0417 24.2813C12.4375 23.5625 12.4375 22.3958 13.0417 21.6771L14.4479 20.0208C14.7083 19.7083 14.9167 19.125 14.9167 18.7188V16.9583C14.9167 15.8542 15.8229 14.9479 16.9271 14.9479H18.7292C19.1458 14.9479 19.7292 14.7292 20.0417 14.4688L21.6979 13.0521Z" stroke="white" stroke-width="1.5" stroke-linecap="round" stroke-linejoin="round"/>
<path d="M22.9948 27.1667H23.0038" stroke="white" stroke-width="2" stroke-linecap="round" stroke-linejoin="round"/>
</svg>
