<svg width="80" height="80" viewBox="0 0 80 80" fill="none" xmlns="http://www.w3.org/2000/svg">
<circle cx="40" cy="40" r="40" fill="#F3970A"/>
<path d="M26.1117 33.2236H24.3338M56.3363 33.2236H54.5584M40.3351 24.334V27.8898M37.6682 27.8898H43.0019M29.6676 45.669H35.0013M45.6688 45.669H51.0026M46.5756 24.0317H34.0946C29.6676 24.0317 28.6897 26.2364 28.1208 28.9388L26.1117 38.5573H54.5584L52.5494 28.9388C51.9804 26.2364 51.0026 24.0317 46.5756 24.0317ZM58.0965 54.2385C58.292 56.3187 56.6208 58.1144 54.4873 58.1144H51.1448C49.2247 58.1144 48.958 57.2966 48.6202 56.2831L48.2646 55.2164C47.7668 53.7585 47.4467 52.7806 44.8865 52.7806H35.7836C33.2234 52.7806 32.85 53.883 32.4056 55.2164L32.05 56.2831C31.7122 57.2966 31.4455 58.1144 29.5253 58.1144H26.1829C24.0494 58.1144 22.3781 56.3187 22.5737 54.2385L23.5693 43.411C23.8182 40.7442 24.3338 38.5573 28.992 38.5573H51.6782C56.3363 38.5573 56.8519 40.7442 57.1008 43.411L58.0965 54.2385Z" stroke="white" stroke-width="1.5" stroke-linecap="round" stroke-linejoin="round"/>
</svg>
