<svg width="110" height="66" viewBox="0 0 110 66" fill="none" xmlns="http://www.w3.org/2000/svg">
<path fill-rule="evenodd" clip-rule="evenodd" d="M51.7275 28.5219C56.9271 28.5219 61.1422 19.5938 61.1422 14.2977C61.1422 9.00163 56.9271 4.70831 51.7275 4.70831C46.5279 4.70831 42.3128 9.00163 42.3128 14.2977C42.3128 19.5938 46.5279 28.5219 51.7275 28.5219ZM51.7275 20.371C54.8472 20.371 57.3763 17.795 57.3763 14.6173C57.3763 11.4397 54.8472 8.86371 51.7275 8.86371C48.6077 8.86371 46.0787 11.4397 46.0787 14.6173C46.0787 17.795 48.6077 20.371 51.7275 20.371Z" fill="#FFB800"/>
<path d="M47.8502 31.568C47.8502 31.1092 48.2005 30.7372 48.6327 30.7372H54.2671C54.6993 30.7372 55.0496 31.1092 55.0496 31.568C55.0496 32.0267 54.6993 32.3987 54.2671 32.3987H48.6327C48.2005 32.3987 47.8502 32.0267 47.8502 31.568Z" fill="#FFB800"/>
<path d="M47.8516 35.8908C47.8516 34.8203 48.6924 33.9525 49.7297 33.9525H53.1729C54.2102 33.9525 55.051 34.8203 55.051 35.8908C55.051 36.9613 54.2102 37.8291 53.1729 37.8291H49.7297C48.6924 37.8291 47.8516 36.9613 47.8516 35.8908Z" fill="#FFB800"/>
<path d="M18.1 60.0008L18.075 49.5258L12.925 58.1508H11.125L5.975 49.7258V60.0008H2.175V42.5008H5.525L12.075 53.3758L18.525 42.5008H21.875L21.9 60.0008H18.1ZM39.5223 46.5508V60.0008H35.7973V58.4508C34.8306 59.6175 33.4306 60.2008 31.5973 60.2008C30.3306 60.2008 29.1806 59.9175 28.1473 59.3508C27.1306 58.7841 26.3306 57.9758 25.7473 56.9258C25.1639 55.8758 24.8723 54.6591 24.8723 53.2758C24.8723 51.8925 25.1639 50.6758 25.7473 49.6258C26.3306 48.5758 27.1306 47.7675 28.1473 47.2008C29.1806 46.6341 30.3306 46.3508 31.5973 46.3508C33.3139 46.3508 34.6556 46.8925 35.6223 47.9758V46.5508H39.5223ZM32.2723 57.0008C33.2556 57.0008 34.0723 56.6675 34.7223 56.0008C35.3723 55.3175 35.6973 54.4091 35.6973 53.2758C35.6973 52.1425 35.3723 51.2425 34.7223 50.5758C34.0723 49.8925 33.2556 49.5508 32.2723 49.5508C31.2723 49.5508 30.4473 49.8925 29.7973 50.5758C29.1473 51.2425 28.8223 52.1425 28.8223 53.2758C28.8223 54.4091 29.1473 55.3175 29.7973 56.0008C30.4473 56.6675 31.2723 57.0008 32.2723 57.0008ZM53.983 49.7508H47.083V60.0008H43.208V46.5508H53.983V49.7508ZM56.0498 46.5508H59.9248V51.8008H65.7748V46.5508H69.6748V60.0008H65.7748V54.9758H59.9248V60.0008H56.0498V46.5508ZM86.8832 46.5508V57.7508C86.8832 60.2175 86.2582 62.0508 85.0082 63.2508C83.7582 64.4508 81.9415 65.0508 79.5582 65.0508C78.2915 65.0508 77.0915 64.8925 75.9582 64.5758C74.8415 64.2591 73.8999 63.8008 73.1332 63.2008L74.6832 60.4008C75.2499 60.8675 75.9415 61.2341 76.7582 61.5008C77.5749 61.7675 78.3999 61.9008 79.2332 61.9008C80.5332 61.9008 81.4832 61.6008 82.0832 61.0008C82.6832 60.4008 82.9832 59.4841 82.9832 58.2508V57.8008C82.4832 58.3008 81.8915 58.6841 81.2082 58.9508C80.5249 59.2175 79.7915 59.3508 79.0082 59.3508C77.2415 59.3508 75.8415 58.8508 74.8082 57.8508C73.7749 56.8341 73.2582 55.3175 73.2582 53.3008V46.5508H77.1582V52.7258C77.1582 54.9091 78.0665 56.0008 79.8832 56.0008C80.8165 56.0008 81.5665 55.7008 82.1332 55.1008C82.6999 54.4841 82.9832 53.5758 82.9832 52.3758V46.5508H86.8832ZM103.696 60.0008V51.9508L99.6713 58.7008H98.0213L94.0963 51.9258V60.0008H90.5713V46.5508H94.6463L98.9463 54.3258L103.521 46.5508H107.171L107.221 60.0008H103.696Z" fill="#FFAA39"/>
</svg>
