<svg width="46" height="46" viewBox="0 0 46 46" fill="none" xmlns="http://www.w3.org/2000/svg">
<circle cx="23" cy="23" r="22.5" fill="#F3970A"/>
<path d="M18.98 29.85L22.08 32.25C22.48 32.65 23.38 32.85 23.98 32.85H27.78C28.98 32.85 30.28 31.95 30.58 30.75L32.98 23.45C33.48 22.05 32.58 20.85 31.08 20.85H27.08C26.48 20.85 25.98 20.35 26.08 19.65L26.58 16.45C26.78 15.55 26.18 14.55 25.28 14.25C24.48 13.95 23.48 14.35 23.08 14.95L18.98 21.05" stroke="white" stroke-width="1.5" stroke-miterlimit="10"/>
<path d="M13.88 29.85V20.05C13.88 18.65 14.48 18.15 15.88 18.15H16.88C18.28 18.15 18.88 18.65 18.88 20.05V29.85C18.88 31.25 18.28 31.75 16.88 31.75H15.88C14.48 31.75 13.88 31.25 13.88 29.85Z" stroke="white" stroke-width="1.5" stroke-linecap="round" stroke-linejoin="round"/>
</svg>
