<svg width="80" height="80" viewBox="0 0 80 80" fill="none" xmlns="http://www.w3.org/2000/svg">
<circle cx="40" cy="40" r="40" fill="#F3970A"/>
<path d="M46.6688 22.5557V40.3348C46.6688 42.2905 45.0687 43.8907 43.113 43.8907H23.5559V29.6673C23.5559 25.7381 26.7384 22.5557 30.6676 22.5557H46.6688Z" stroke="white" stroke-width="1.5" stroke-linecap="round" stroke-linejoin="round"/>
<path d="M59.1142 43.8909V49.2246C59.1142 52.176 56.7318 54.5584 53.7805 54.5584H52.0026C52.0026 52.6027 50.4024 51.0026 48.4467 51.0026C46.491 51.0026 44.8909 52.6027 44.8909 54.5584H37.7792C37.7792 52.6027 36.1791 51.0026 34.2234 51.0026C32.2677 51.0026 30.6676 52.6027 30.6676 54.5584H28.8897C25.9383 54.5584 23.5559 52.176 23.5559 49.2246V43.8909H43.113C45.0687 43.8909 46.6688 42.2908 46.6688 40.3351V27.8896H49.9402C51.2203 27.8896 52.3937 28.583 53.0338 29.6853L56.074 35.0013H53.7805C52.8026 35.0013 52.0026 35.8014 52.0026 36.7792V42.113C52.0026 43.0908 52.8026 43.8909 53.7805 43.8909H59.1142Z" stroke="white" stroke-width="1.5" stroke-linecap="round" stroke-linejoin="round"/>
<path d="M34.2233 58.1144C35.1664 58.1144 36.0708 57.7397 36.7377 57.0729C37.4045 56.4061 37.7791 55.5016 37.7791 54.5585C37.7791 53.6155 37.4045 52.711 36.7377 52.0442C36.0708 51.3773 35.1664 51.0027 34.2233 51.0027C33.2802 51.0027 32.3758 51.3773 31.709 52.0442C31.0421 52.711 30.6675 53.6155 30.6675 54.5585C30.6675 55.5016 31.0421 56.4061 31.709 57.0729C32.3758 57.7397 33.2802 58.1144 34.2233 58.1144ZM48.4466 58.1144C49.3897 58.1144 50.2942 57.7397 50.961 57.0729C51.6278 56.4061 52.0025 55.5016 52.0025 54.5585C52.0025 53.6155 51.6278 52.711 50.961 52.0442C50.2942 51.3773 49.3897 51.0027 48.4466 51.0027C47.5036 51.0027 46.5991 51.3773 45.9323 52.0442C45.2654 52.711 44.8908 53.6155 44.8908 54.5585C44.8908 55.5016 45.2654 56.4061 45.9323 57.0729C46.5991 57.7397 47.5036 58.1144 48.4466 58.1144ZM59.1141 40.3352V43.891H53.7804C52.8025 43.891 52.0025 43.091 52.0025 42.1131V36.7794C52.0025 35.8015 52.8025 35.0015 53.7804 35.0015H56.0739L59.1141 40.3352Z" stroke="white" stroke-width="1.5" stroke-linecap="round" stroke-linejoin="round"/>
</svg>
